<?xml version="1.0" standalone="no"?><!DOCTYPE svg PUBLIC "-//W3C//DTD SVG 1.1//EN" "http://www.w3.org/Graphics/SVG/1.1/DTD/svg11.dtd"><svg class="icon" width="200px" height="200.00px" viewBox="0 0 1024 1024" version="1.1" xmlns="http://www.w3.org/2000/svg"><path fill="#ffffff" d="M720 119.168a32 32 0 0 1 31.96 30.4l0.04 1.6v56h80c52.2 0 94.672 41.672 95.968 93.56l0.032 2.44v512c0 52.208-41.672 94.68-93.56 95.976l-2.44 0.024H192c-52.2 0-94.672-41.664-95.968-93.56l-0.032-2.44v-512c0-52.2 41.672-94.672 93.56-95.968l2.44-0.032h80v-56a32 32 0 0 1 63.96-1.6l0.04 1.6v56h352v-56a32 32 0 0 1 32-32z m112 280H192a32 32 0 0 0-31.96 30.4l-0.04 1.6v384a32 32 0 0 0 30.4 31.968l1.6 0.032h640a32 32 0 0 0 31.96-30.4l0.04-1.6v-384a32 32 0 0 0-32-32z m-516 320a32 32 0 0 1 1.6 63.968l-1.6 0.032h-64a32 32 0 0 1-1.6-63.96l1.6-0.04h64z m224 0a32 32 0 0 1 1.6 63.968l-1.6 0.032h-64a32 32 0 0 1-1.6-63.96l1.6-0.04h64z m224 0a32 32 0 0 1 1.6 63.968l-1.6 0.032h-64a32 32 0 0 1-1.6-63.96l1.6-0.04h64z m-224-128a32 32 0 0 1 1.6 63.968l-1.6 0.032h-64a32 32 0 0 1-1.6-63.96l1.6-0.04h64z m224 0a32 32 0 0 1 1.6 63.968l-1.6 0.032h-64a32 32 0 0 1-1.6-63.96l1.6-0.04h64z m-448 0a32 32 0 0 1 1.6 63.968l-1.6 0.032h-64a32 32 0 0 1-1.6-63.96l1.6-0.04h64z m224-128a32 32 0 0 1 1.6 63.968l-1.6 0.032h-64a32 32 0 0 1-1.6-63.96l1.6-0.04h64z m224 0a32 32 0 0 1 1.6 63.968l-1.6 0.032h-64a32 32 0 0 1-1.6-63.96l1.6-0.04h64z"  /></svg>