<?xml version="1.0" standalone="no"?><!DOCTYPE svg PUBLIC "-//W3C//DTD SVG 1.1//EN" "http://www.w3.org/Graphics/SVG/1.1/DTD/svg11.dtd"><svg class="icon" width="200px" height="200.00px" viewBox="0 0 1024 1024" version="1.1" xmlns="http://www.w3.org/2000/svg"><path fill="#000000" d="M480 64C214.904 64 0 278.904 0 544c0 265.098 214.904 480 480 480 265.098 0 480-214.902 480-480C960 278.904 745.098 64 480 64zM751.59 704c8.58-40.454 13.996-83.392 15.758-128l127.446 0c-3.336 44.196-13.624 87.114-30.68 128L751.59 704zM208.41 384c-8.58 40.454-13.996 83.392-15.758 128L65.208 512c3.336-44.194 13.622-87.114 30.678-128L208.41 384zM686.036 384c9.614 40.962 15.398 83.854 17.28 128L512 512l0-128L686.036 384zM512 320 512 132.662c14.59 4.246 29.044 11.37 43.228 21.37 26.582 18.74 52.012 47.608 73.54 83.486 14.882 24.802 27.752 52.416 38.496 82.484L512 320.002zM331.232 237.516c21.528-35.878 46.956-64.748 73.54-83.486 14.182-10 28.638-17.124 43.228-21.37L448 320l-155.264 0C303.482 289.934 316.352 262.32 331.232 237.516zM448 384l0 128-191.314 0c1.88-44.146 7.666-87.038 17.278-128L448 384zM95.888 704c-17.056-40.886-27.342-83.804-30.678-128l127.444 0c1.762 44.608 7.178 87.546 15.758 128L95.888 704zM256.686 576 448 576l0 128-174.036 0C264.352 663.04 258.566 620.146 256.686 576zM448 768l0 187.34c-14.588-4.246-29.044-11.372-43.228-21.37-26.584-18.74-52.014-47.61-73.54-83.486-14.882-24.804-27.75-52.418-38.498-82.484L448 768zM628.768 850.484c-21.528 35.876-46.958 64.746-73.54 83.486-14.184 9.998-28.638 17.124-43.228 21.37L512 768l155.266 0C656.52 798.066 643.65 825.68 628.768 850.484zM512 704l0-128 191.314 0c-1.88 44.146-7.666 87.04-17.28 128L512 704zM767.348 512c-1.762-44.608-7.178-87.546-15.758-128l112.524 0c17.056 40.886 27.344 83.806 30.68 128L767.348 512zM830.658 320l-95.9 0c-18.638-58.762-44.376-110.294-75.316-151.428 42.536 20.34 81.058 47.616 114.714 81.272C795.636 271.322 814.518 294.782 830.658 320zM185.844 249.844c33.658-33.658 72.18-60.932 114.714-81.272-30.942 41.134-56.676 92.666-75.316 151.428L129.344 320C145.482 294.782 164.366 271.322 185.844 249.844zM129.344 768l95.898 0c18.64 58.762 44.376 110.294 75.318 151.43-42.536-20.34-81.058-47.616-114.714-81.274C164.366 816.678 145.482 793.218 129.344 768zM774.156 838.156c-33.656 33.658-72.18 60.934-114.714 81.274 30.942-41.134 56.678-92.668 75.316-151.43l95.9 0C814.518 793.218 795.636 816.678 774.156 838.156z"  /></svg>